HIERARCHY
ROOT Hips
{
   OFFSET 0.00000 0.00000 0.00000
   CHANNELS 6 Xposition Yposition Zposition Zrotation Xrotation Yrotation
   JOINT Spine
   {
      OFFSET 0.000000 11.890501 0.000000
      CHANNELS 3 Zrotation Xrotation Yrotation
      JOINT Spine1
      {
         OFFSET -0.000000 25.657401 0.127660
         CHANNELS 3 Zrotation Xrotation Yrotation
         JOINT HEad
         {
            OFFSET 0.000000 8.734161 0.011340
            CHANNELS 3 Zrotation Xrotation Yrotation
            End Site
            {
               OFFSET -0.290000 12.774200 2.513950
            }
         }
         JOINT LeftShoulder1
         {
            OFFSET 8.990000 -0.362250 -0.220000
            CHANNELS 3 Zrotation Xrotation Yrotation
            JOINT LeftArm
            {
               OFFSET 10.282700 -0.003380 0.322120
               CHANNELS 3 Zrotation Xrotation Yrotation
               JOINT LeftForeArm
               {
                  OFFSET 32.766900 0.099140 -1.424340
                  CHANNELS 3 Zrotation Xrotation Yrotation
                  JOINT LeftHand
                  {
                     OFFSET 27.564301 0.085360 1.022160
                     CHANNELS 3 Zrotation Xrotation Yrotation
                     End Site
                     {
                        OFFSET 16.744301 -0.600000 1.502910
                     }
                  }
               }
            }
         }
         JOINT RightShoulder
         {
            OFFSET -8.990000 -0.362250 -0.220000
            CHANNELS 3 Zrotation Xrotation Yrotation
            JOINT RightArm
            {
               OFFSET -10.282700 -0.003380 0.322120
               CHANNELS 3 Zrotation Xrotation Yrotation
               JOINT RightForeArm
               {
                  OFFSET -32.897098 0.099140 -1.424340
                  CHANNELS 3 Zrotation Xrotation Yrotation
                  JOINT RightHand
                  {
                     OFFSET -27.492101 0.085360 1.022160
                     CHANNELS 3 Zrotation Xrotation Yrotation
                     End Site
                     {
                        OFFSET -16.631201 -0.600000 1.502910
                     }
                  }
               }
            }
         }
      }
   }
   JOINT LeftUpLeg
   {
      OFFSET 8.945800 -8.667070 0.101650
      CHANNELS 3 Zrotation Xrotation Yrotation
      JOINT LeftLeg
      {
         OFFSET 0.000000 -44.422697 1.372700
         CHANNELS 3 Zrotation Xrotation Yrotation
         JOINT LeftFoot
         {
            OFFSET -0.253550 -42.092399 -1.460590
            CHANNELS 3 Zrotation Xrotation Yrotation
            JOINT LeftToes
            {
               OFFSET -0.040000 -4.415090 8.499099
               CHANNELS 3 Zrotation Xrotation Yrotation
               End Site
               {
                  OFFSET 0.080000 -0.047450 9.779790
               }
            }
         }
      }
   }
   JOINT RightUpLeg
   {
      OFFSET -8.945800 -8.667070 0.101650
      CHANNELS 3 Zrotation Xrotation Yrotation
      JOINT RightLeg
      {
         OFFSET 0.000000 -44.422697 1.372700
         CHANNELS 3 Zrotation Xrotation Yrotation
         JOINT RightFoot
         {
            OFFSET 0.253550 -42.092399 -1.460590
            CHANNELS 3 Zrotation Xrotation Yrotation
            JOINT RightToes
            {
               OFFSET 0.040000 -4.415090 8.499099
               CHANNELS 3 Zrotation Xrotation Yrotation
               End Site
               {
                  OFFSET -0.080000 -0.137450 9.779790
               }
            }
         }
      }
   }
}
MOTION
Frames: 12
Frame Time: 0.016670
27.753055 98.466881 -21.450605 13.170225 11.475945 161.855853 3.289817 28.119638 -4.712579 -0.251153 1.613212 -1.865318 -18.322198 26.019961 17.315489 -3.165743 -12.713464 -13.700040 -164.078807 -86.417541 -137.955328 -22.170804 64.420698 -94.552754 17.122938 7.639409 4.567960 13.095114 8.475705 -3.066646 70.007943 5.227833 73.487563 -0.365220 13.817289 99.589725 12.793772 10.608710 9.023204 17.164803 3.906052 -59.585512 -15.019647 -12.040445 73.355569 -34.715468 10.207645 15.427138 38.759783 -20.763092 -33.863938 -19.163527 19.277710 -22.616307 24.172789 20.496190 15.684454 -48.763121 1.858640 33.216118 21.480894 -28.849066 -52.910429
27.162654 98.738345 -21.896631 14.186848 11.842111 162.362886 4.925362 28.540386 -4.275800 -0.453235 1.714120 -2.510152 -17.191144 25.383507 15.840728 -3.695430 -12.406658 -14.697843 -162.856230 -85.602187 -137.406795 -21.320038 64.475811 -95.280695 17.737547 7.733320 5.237832 12.450175 8.660301 -3.518466 70.764161 4.887712 73.838129 -0.750862 13.423662 100.615182 12.813490 10.473354 8.799680 17.798870 4.907167 -56.731626 -15.122027 -11.234834 71.120793 -36.265115 10.491912 15.619905 40.154928 -21.076010 -34.837086 -18.769122 19.074130 -20.325137 24.840498 20.637591 13.722652 -48.596946 1.401160 33.363668 20.944905 -28.714539 -53.145159
26.607306 98.964528 -22.208802 14.771916 12.151324 163.031711 6.196922 28.981456 -3.905064 -0.660323 1.804787 -3.054721 -16.053456 24.684053 14.522189 -4.286648 -11.987438 -15.251447 -161.449252 -84.510026 -137.095052 -20.537356 64.697737 -96.113322 18.446579 7.906812 5.706586 11.923686 8.904161 -3.734017 71.504267 4.508064 74.177521 -1.142476 13.004444 101.645782 12.942614 10.533013 8.626414 18.131229 5.490404 -53.827071 -15.708388 -11.198334 69.163336 -34.383551 10.896431 16.027387 38.448617 -21.333853 -35.748981 -18.620692 18.713120 -18.084391 25.027901 20.738882 12.023311 -48.519345 1.217401 33.631886 20.404652 -28.662004 -52.895618
26.100087 99.183291 -22.395556 15.281459 12.332999 163.379832 7.043252 29.358998 -3.500773 -0.834204 1.764740 -3.404996 -14.968732 23.968039 13.358618 -4.590986 -11.359332 -15.484382 -159.718919 -83.284513 -137.070681 -19.513429 65.292811 -96.703239 19.400908 7.934918 5.999554 11.420857 8.946555 -3.763391 72.284377 3.942094 74.714524 -1.631922 12.497901 102.467850 13.156239 10.499918 8.447753 18.580459 5.914079 -51.526554 -16.121186 -10.907586 67.009893 -32.707303 11.363661 16.116431 36.899639 -21.294341 -36.725029 -18.308136 18.316593 -16.194411 25.108047 20.758618 10.393092 -48.264821 1.175626 33.744181 19.959003 -28.517679 -52.539321
25.662996 99.379605 -22.460966 15.731847 12.337108 163.906590 7.812159 29.492159 -3.264814 -1.015332 1.911855 -3.763273 -13.900850 23.301505 12.326129 -5.035909 -10.453035 -15.584385 -158.315971 -81.794869 -136.535946 -18.976636 66.341539 -97.913426 20.410275 7.975596 5.727065 11.026149 8.956308 -3.684753 73.118623 3.307172 75.275945 -2.163015 11.868911 103.183914 13.483919 10.588094 8.280500 18.762248 6.238333 -49.470401 -16.014550 -10.426911 65.031426 -31.057434 11.562375 16.139435 35.500550 -20.916204 -37.511587 -17.851960 17.936816 -14.509636 25.103168 20.761687 8.923703 -47.917291 1.220946 33.802756 19.596383 -28.231289 -52.068499
25.293808 99.599064 -22.447457 15.915428 12.519844 164.122629 8.733051 29.335277 -2.945695 -1.023943 2.082308 -3.884860 -12.927439 22.602667 11.429049 -5.074409 -9.468484 -15.393146 -156.675278 -80.114936 -136.109168 -18.343062 67.683630 -99.026521 21.771026 7.902642 5.060056 10.509263 9.001371 -3.473035 73.657108 2.751784 75.729162 -2.816591 11.373955 103.724667 13.792957 10.599002 8.113054 18.707224 6.403472 -47.821679 -16.049732 -9.641637 63.144204 -29.407468 11.515336 16.001149 34.196203 -20.325379 -38.249428 -17.602238 17.700760 -12.950978 24.864252 20.779469 7.613641 -47.494041 1.286828 33.798160 19.281329 -27.788869 -51.558940
24.994397 99.807661 -22.396862 16.161242 12.319797 164.235874 8.913221 29.513732 -2.761661 -0.967698 1.859728 -4.000271 -12.099186 22.039415 10.662612 -5.245966 -8.953750 -15.107726 -155.380055 -78.258067 -135.719424 -17.187925 68.327963 -99.370817 23.119801 7.882880 4.962360 10.131599 9.004195 -3.036492 74.114403 2.355519 76.165359 -3.615677 10.881463 103.979337 14.118564 10.668424 7.856635 18.759041 6.164956 -46.406262 -16.094017 -8.765167 61.443630 -27.752382 11.112881 15.749614 32.935527 -19.552055 -38.853992 -17.126120 17.332513 -11.520063 24.600899 20.606734 6.564125 -47.006472 1.343949 33.872315 19.012952 -27.180456 -50.995357
24.763722 99.960469 -22.284257 16.317873 12.097388 164.301526 8.966858 29.651566 -2.630798 -0.838934 1.825858 -4.038816 -11.415689 21.518390 10.019924 -5.218256 -8.196499 -14.661001 -153.869655 -76.614170 -135.545487 -16.376260 69.409537 -100.080890 24.259095 7.855944 4.954173 9.804683 8.912045 -2.658815 74.469546 1.911503 76.635385 -4.396095 10.389168 104.295705 14.450904 10.687780 7.661312 18.763641 5.898866 -45.282716 -15.928377 -7.983623 59.821952 -26.062106 10.545272 15.378197 31.779504 -18.552252 -39.381119 -16.709163 17.045753 -10.242961 24.398843 20.337711 5.686190 -46.481667 1.362153 33.926991 18.795122 -26.500758 -50.476778
24.609713 100.043934 -22.106917 16.485942 11.906833 164.249862 9.098033 29.754814 -2.503103 -0.853130 1.723490 -3.970079 -10.866387 21.093566 9.490670 -5.512681 -7.662176 -14.066956 -152.694671 -74.938937 -135.295707 -15.508732 70.064408 -100.680028 25.303105 7.873048 5.233345 9.545624 8.830065 -2.292177 74.681521 1.549659 77.063160 -5.180374 9.991283 104.676474 14.689188 10.720207 7.410596 18.881129 5.780865 -44.615626 -15.532977 -7.327327 58.092282 -24.426286 9.840082 14.682465 30.721972 -17.379785 -39.943295 -16.415059 16.916212 -9.246466 24.654831 20.035412 4.877601 -45.930177 1.347827 33.899288 18.653651 -25.780759 -50.068545
24.529700 100.035599 -21.869867 16.391440 11.805467 164.282879 9.094283 29.917984 -2.476373 -0.848544 1.651690 -3.907959 -10.421906 20.741066 9.061774 -5.815726 -7.147313 -13.420526 -151.463871 -73.400546 -135.237828 -14.584503 70.698018 -101.237863 26.121456 7.900148 5.718762 9.383404 8.708168 -1.894792 74.774835 1.398430 77.525352 -5.984478 9.685691 105.071006 14.817709 10.711711 7.093849 18.800430 5.626464 -43.909807 -15.296543 -6.899207 56.723297 -22.729276 9.220534 14.246147 29.457243 -16.357769 -40.388148 -16.197326 16.880674 -8.266494 24.574529 19.651149 4.137797 -45.577668 1.348724 33.815744 18.414368 -25.188129 -49.642952
24.505186 99.964941 -21.606240 16.220180 11.724805 164.260080 8.757129 30.010495 -2.487284 -0.887221 1.545162 -3.810525 -10.088185 20.511879 8.725139 -6.020540 -6.769435 -12.744472 -150.071277 -71.930259 -135.422857 -13.681424 71.280510 -101.824761 26.658860 7.959441 6.442818 9.360598 8.542841 -1.593966 74.805673 1.280861 77.906394 -6.861573 9.364830 105.223982 14.990279 10.736783 6.747494 18.685425 5.355118 -43.350545 -15.129711 -6.463954 55.585452 -21.040439 8.744695 13.944470 27.995303 -15.520140 -40.769362 -15.982463 16.844604 -7.377730 24.442428 19.225207 3.405286 -45.411684 1.388439 33.685448 18.100403 -24.658829 -49.216608
24.542296 99.861077 -21.308331 15.975570 11.611548 164.308807 8.399026 29.892323 -2.486321 -1.069923 1.456711 -3.649612 -9.708877 20.382497 8.436627 -6.595993 -6.401489 -12.137793 -149.086186 -70.549249 -135.179061 -12.817235 71.733987 -102.468820 27.012778 7.990438 6.995787 9.541826 8.374014 -1.291653 74.673147 1.278339 78.111116 -7.680350 9.102061 105.317958 15.048947 10.719366 6.504608 18.366983 5.065249 -42.762640 -15.025822 -6.005603 54.858560 -19.320312 8.286205 13.919557 26.358082 -14.829251 -40.947667 -15.840192 16.867611 -6.599834 24.353714 18.667402 2.679652 -45.400465 1.484821 33.566487 17.738170 -24.072450 -48.767868
